<?xml version="1.0" standalone="no"?>
<!DOCTYPE svg PUBLIC "-//W3C//DTD SVG 20010904//EN"
 "http://www.w3.org/TR/2001/REC-SVG-20010904/DTD/svg10.dtd">
<svg version="1.0" xmlns="http://www.w3.org/2000/svg"
 width="480.000000pt" height="480.000000pt" viewBox="0 0 480.000000 480.000000"
 preserveAspectRatio="xMidYMid meet">
<metadata>
Created by potrace 1.14, written by Peter Selinger 2001-2017
</metadata>
<g transform="translate(0.000000,480.000000) scale(0.100000,-0.100000)"
fill="#000000" stroke="none">
<path d="M2135 4785 c-376 -42 -741 -174 -1051 -380 -371 -248 -635 -547 -834
-943 -332 -665 -332 -1460 2 -2126 356 -713 999 -1180 1803 -1312 156 -26 534
-26 690 0 361 59 698 190 990 384 733 487 1145 1363 1051 2237 -40 370 -157
710 -354 1028 -266 431 -681 774 -1167 965 -344 136 -750 188 -1130 147z m575
-371 c127 -19 192 -34 335 -81 123 -39 313 -127 420 -193 301 -184 560 -458
729 -771 l46 -86 -84 -5 c-150 -10 -273 -92 -339 -227 -30 -62 -32 -73 -32
-171 0 -99 2 -110 33 -172 41 -85 128 -167 209 -199 45 -18 79 -23 154 -23 90
-1 99 1 169 36 41 20 77 34 80 31 12 -12 2 -345 -14 -447 -139 -912 -834
-1597 -1751 -1727 -116 -17 -414 -17 -530 0 -622 88 -1145 427 -1471 954 -140
225 -235 485 -280 768 -23 142 -23 456 0 598 97 609 439 1126 951 1441 156 96
399 197 590 244 62 15 252 43 340 50 89 7 337 -4 445 -20z"/>
<path d="M2279 3261 c-109 -35 -190 -109 -243 -221 -28 -58 -31 -75 -31 -160
0 -91 2 -100 38 -172 152 -309 572 -303 721 11 28 59 31 75 31 161 0 86 -3
101 -32 162 -56 118 -142 192 -259 223 -76 20 -155 18 -225 -4z"/>
<path d="M2129 2037 c-20 -14 -41 -40 -53 -69 l-19 -47 22 -68 c33 -99 120
-277 176 -358 138 -201 327 -354 539 -436 256 -99 562 -97 810 5 314 130 544
379 682 738 39 101 42 134 14 188 -25 49 -64 70 -130 70 -74 0 -107 -36 -159
-170 -119 -308 -353 -527 -637 -596 -95 -24 -277 -23 -369 0 -287 74 -525 299
-635 603 -16 46 -37 95 -46 109 -38 57 -134 72 -195 31z"/>
</g>
</svg>
